#!OML:ASF F:\VICON\USERDATA\INSTALL\rory3\rory3.ASF
:FULLY-SPECIFIED
:DEGREES
81
root 4.431935558374703 17.749571663712544 29.48479251085654 -4.458544130568955 -4.100409840678007 -0.03737309229119967
lfemur -4.699820381205349 -5.631773876847496 -26.642444938053185
ltibia 26.958674394679072
lfoot -14.981297413129754 1.9710927824311901
ltoes 4.627446872843868
rfemur -26.96615954344714 -1.7888570808578006 21.082664823863663
rtibia 75.21693751642917
rfoot -2.575386207438667 -6.154069373884282
rtoes 8.46935349357815
lowerback nan 0.47575282973826977 -0.866945120771875
upperback 0.7115914670754784 0.5931522683791725 0.6538071969329368
thorax -5.483600435628585 0.41221755240498004 1.53959577582703
lowerneck -16.512915913443614 -2.885567130473247 -2.267952036354798
upperneck 18.794688677002664 -4.055420314816744 2.373370403322882
head 8.458995515388112 -1.9033004045823916 1.0860964955805386
lclavicle 5.932603538625289e-16 -1.0222494106960847e-15
lhumerus -33.81260964716339 -0.1889715466807645 82.75772294106827
lradius 25.532457009075852
lwrist 4.825925348646004
lhand -26.362925627670787 24.501903394831643
lfingers nan
lthumb -0.13663308232310384 54.20102010919159
rclavicle 3.628387745740297e-15 2.1540429968311292e-15
rhumerus -31.181983697927024 -16.04892023902789 -79.76173951565762
rradius 30.085031658076108
rwrist 2.0120563237994347
rhand -18.52722430186645 nan
rfingers nan
rthumb 7.6903411154546 -6.989656413986632
82
root 4.44176402063273 17.737077544733765 31.01121776114037 -4.1040801861477 -3.3518590578854885 0.7731476284614778
lfemur -3.064956214279232 -5.293133906176707 -26.81347021576629
ltibia 25.131559095807038
lfoot -15.616593850467048 2.6557225499044868
ltoes 4.710910615338402
rfemur -28.931986219368234 -0.9277290112112491 20.5808142020109
rtibia 68.08885394799866
rfoot -6.262823343271164 -6.93825179296907
rtoes 4.862835949582672
lowerback nan 0.25600774947254923 -1.0615894236648928
upperback 0.676323776903553 0.07967378263830971 0.8265777199240487
thorax -5.1093883481573235 0.1447969292392323 1.9574092720993082
lowerneck -16.674969712122657 -2.823142298441752 -2.2778635509110394
upperneck 18.36706124818045 -4.005604447948357 2.175152982118063
head 8.942520275096348 -1.8449383900593879 0.7277837781302863
lclavicle -1.2869016878217596e-15 -2.0001373384294993e-15
lhumerus -32.42342520601624 -1.0011377507500108 82.90693472373758
lradius 25.728270324877304
lwrist 5.66198047076411
lhand -26.530012185377288 24.351624233066715
lfingers nan
lthumb -0.4690786290920115 53.41973998457612
rclavicle 1.7974422002061764e-16 1.842115515572351e-17
rhumerus -31.911810851747003 -16.536248783481785 -79.43324876399639
rradius 30.966034909580735
rwrist 1.215113195492411
rhand -18.51288103121428 nan
rfingers nan
rthumb 7.546587063514261 -6.917018554297658
83
root 4.413364997413356 17.706847229394604 30.939374544437083 -3.6882395141918547 -2.8827007657462684 1.0607645442603313
lfemur 0.023977186691684693 -4.333418298043948 -28.36328209776795
ltibia 23.066215968426157
lfoot -14.249258913114733 3.607609223075688
ltoes 5.1306201690707605
rfemur -30.052934638759538 -0.07931692236932175 18.94014630763377
rtibia 57.90430435076972
rfoot -6.8623207754388895 -7.9564971416109325
rtoes 2.6613675734549953
lowerback nan -0.1654441886354695 -2.369325487554738
upperback 0.7022256314890525 -0.5856212601266994 0.7418746825981182
thorax -4.982247573203055 -0.19580230928311615 2.6070819806452263
lowerneck -16.71369592972485 -2.858556341628434 -2.3223724563085457
upperneck 17.644540107829883 -3.856354229856364 2.3743634034934153
head 8.636354166765807 -1.7737806909629086 0.9021998904078643
lclavicle -2.6006885650012574e-15 -3.744066590390059e-15
lhumerus -30.6999549724741 -2.0280284194581757 83.08094996755383
lradius 27.175794109861826
lwrist 6.251020416647187
lhand -26.514087277877387 24.537510595300628
lfingers nan
lthumb -0.002686395695858018 54.257446623331006
rclavicle 2.671817982957427e-15 1.5524618552110679e-15
rhumerus -32.48208653903602 -17.80631236459767 -78.8779228146459
rradius 31.248016958480818
rwrist 1.2098613084759533
rhand -18.228263338896625 nan
rfingers nan
rthumb 7.94308110169736 -7.998922828894534
84
root 4.402358444610125 17.68817094735607 32.070035889398426 -3.1286436666636863 -2.198210282393259 1.6719652508282916
lfemur 3.049033353516352 -4.0438027221971815 -28.733378179201196
ltibia 20.686378919788748
lfoot -13.401706600953144 2.917981006919193
ltoes 6.016083062054652
rfemur -29.785316448243325 2.889667743895369 17.548189222035766
rtibia 45.515819122331955
rfoot -6.227439357154814 -9.660287735983912
rtoes 4.474148656037747
lowerback nan -0.5887268901573921 -2.9415209309790917
upperback 0.7983294398418647 -1.0994946311306042 0.9432010540408311
thorax -5.147163359953482 -0.49484676671263494 3.2221487846131542
lowerneck -16.684771851009305 -2.8586123501021308 -2.365042342519113
upperneck 16.752030556468732 -3.788442163389448 2.311498649059845
head 8.628937770316954 -1.7484938361339128 0.8842113113178951
lclavicle 2.5223796581375643e-15 4.342602781087334e-17
lhumerus -29.492633019026645 -3.0757518286444103 83.13647203311811
lradius 28.975839278648483
lwrist 6.760557589067616
lhand -27.25585542010322 24.38699479710509
lfingers nan
lthumb -0.44500417757095945 54.79370450192328
rclavicle 8.184744724897778e-16 -1.0596764138567518e-15
rhumerus -33.35867461419255 -18.883231732590566 -78.247397796828
rradius 30.819600218674374
rwrist 1.2405874167947084
rhand -18.526707331518626 nan
rfingers nan
rthumb 8.079867413934963 -8.596394584699343
85
root 4.330549262478085 17.637797601196258 31.21617974937003 -2.8209692742661527 -1.902021253083471 1.7178108345969885
lfemur 7.285309291128247 -4.075002335420862 -27.96401009958841
ltibia 17.501281291776117
lfoot -11.634902056713447 1.550019499560789
ltoes 5.548686905439257
rfemur -29.114545129434333 6.812267969775046 16.357807107800348
rtibia 31.293039454811097
rfoot -6.778717270122007 -12.506504424955917
rtoes 4.899368029884601
lowerback nan -0.9342283408155503 -2.882031144413112
upperback 0.6515535822068461 -1.5529327691223722 0.9368272557746518
thorax -4.533967763960232 -0.6873504130401663 3.567509427060414
lowerneck -16.894102951460976 -2.924926734865427 -2.361962611021566
upperneck 16.720980479834846 -3.9134876627251183 2.7886327835596694
head 8.302198154572768 -1.750794164220458 1.164946667516819
lclavicle 1.2045687418611927e-15 -1.2890372521686374e-15
lhumerus -28.045915075481453 -3.8783912285888764 83.27048928324511
lradius 29.895052912205795
lwrist 6.925267625652746
lhand -27.670052645616313 23.14926331979311
lfingers nan
lthumb -0.47568558609078593 54.6920703027512
rclavicle 3.795797329396537e-15 2.3360702817288187e-15
rhumerus -34.10964203532793 -20.04153035826939 -77.64757141987945
rradius 29.126203355407583
rwrist 3.130293239092497
rhand -19.0072134882081 nan
rfingers nan
rthumb 7.69114717241872 -7.4572457159087255
86
root 4.295071341224263 17.601974950691847 33.247825959936605 -2.4383900552178543 -1.3189754328286456 2.176373650865624
lfemur 11.468792209412477 -4.034130050015587 -28.610686038193364
ltibia 14.011814744679626
lfoot -9.994507385375304 -0.23968310321469977
ltoes 0.9753744349512239
rfemur -28.988071962850107 6.647663553011341 15.237949819003743
rtibia 19.980549272395415
rfoot -10.947081796268439 -15.893294900021457
rtoes -0.6945543757176127
lowerback nan -1.2139720728296086 -3.5682051728776125
upperback 0.3542737955500693 -2.090980268282749 1.0092718779243843
thorax -4.8765318501845885 -0.9294610631657413 4.164937462606343
lowerneck -16.818717919754015 -2.935308715778291 -2.370777003319818
upperneck 15.501496967111812 -4.3941236296435315 3.4273765676100476
head 8.320552278174697 -1.9571743538876678 1.3335594162828548
lclavicle 3.4791680760184266e-16 -1.1189800619900532e-15
lhumerus -27.464824503830364 -4.607249580283007 83.25450819229009
lradius 31.631124598580726
lwrist 7.407042074196526
lhand -26.768552771507768 25.60463734609603
lfingers nan
lthumb -0.5060304230834479 55.04621470059425
rclavicle 1.7021663430915217e-15 4.860736436989352e-16
rhumerus -34.92383710911745 -21.224857746522254 -76.66926559957423
rradius 28.363640362440176
rwrist 4.246853812905959
rhand -18.60407762106335 nan
rfingers nan
rthumb 7.40601425149119 -6.675551482117793
87
root 4.2156401882589645 17.54830052842807 33.726645660461344 -2.3805728184175745 -1.2427772659739251 2.029717980361235
lfemur 13.561437319475715 -5.191858654723642 -27.81189116712674
ltibia 16.1402422281139
lfoot -8.58784108997733 -1.0160227882560782
ltoes -5.049106181858522
rfemur -28.976707239818815 5.514802008395152 17.274979897146864
rtibia 16.482275119248214
rfoot -12.50279016816387 -14.429028231836442
rtoes -6.027164490889209
lowerback nan -1.3800597661292837 -3.08005226790421
upperback 0.21613845905575496 -2.3805216210279188 1.2135932021281872
thorax -4.649058057680716 -1.03546726413294 4.620335903962269
lowerneck -16.77811192930799 -2.835178514021858 -2.358488900139104
upperneck 15.241117095288985 -4.295076740957453 3.364610136196024
head 8.145932788305563 -1.9240875809250684 1.2808484845229644
lclavicle 2.1659317023695036e-15 -1.2251653154493887e-16
lhumerus -27.14118665320695 -5.0349031809561735 83.30734490390802
lradius 32.97209113419916
lwrist 7.799941011375801
lhand -25.23830175691045 26.77687178428816
lfingers nan
lthumb 1.2993567184338108 57.4007283267011
rclavicle -8.438582386160039e-16 -2.6882933280708816e-16
rhumerus -35.348213857485014 -22.570860799585695 -75.66656478331042
rradius 27.700690830042614
rwrist 5.177291452795136
rhand -18.345967185347718 nan
rfingers nan
rthumb 7.5960452998898305 -5.732381575327814
88
root 4.1506504544785265 17.5229272545589 34.94913973404391 -2.4106602158807444 -1.1302192430077176 1.7420014626442994
lfemur 14.568925706501936 -5.8098415655584965 -27.960713843807277
ltibia 18.262186131577234
lfoot -7.810061452685201 -2.238892099428566
ltoes -11.932252717982927
rfemur -30.15968703046243 2.5882728997875666 18.9078801549153
rtibia 22.900333721669234
rfoot -8.601274768722105 -10.305609647734883
rtoes -4.963115611291778
lowerback nan -1.3243884421145262 -3.704679613450634
upperback 0.3809012892118283 -2.1427017730278966 1.190246235286841
thorax -4.331744717850887 -0.8583833158489856 4.357528830134296
lowerneck -16.7962501335868 -2.8044374915986303 -2.4469967483103487
upperneck 15.6420261496033 -4.841333277250502 3.7866937126193276
head 8.396742579304604 -2.171410774323179 1.3535824085006072
lclavicle 7.084736223547145e-16 -4.896038264906843e-16
lhumerus -26.914193070624673 -4.858062325427877 83.26969946318766
lradius 34.23827865521123
lwrist 8.238925128758343
lhand -25.333209520651902 24.45384768656643
lfingers nan
lthumb 2.042565283501078 57.43790465419771
rclavicle 1.5319123979309388e-15 -7.548431093616831e-17
rhumerus -35.580300412962615 -23.81794797209968 -74.75387596144061
rradius 26.911240641499337
rwrist 4.668953113579681
rhand -18.383553064614695 nan
rfingers nan
rthumb 7.966676156431015 -6.181987657429997
